<svg xmlns="http://www.w3.org/2000/svg" width="40" height="40"><path fill="#fff" d="M23.493 7.48a1.42 1.42 0 11-2.84-.002 1.42 1.42 0 012.84.001zm10.59 0a1.42 1.42 0 11-2.84-.002 1.42 1.42 0 012.84.001zm0 11.9a1.42 1.42 0 11-2.84 0 1.42 1.42 0 012.84 0zm0 11.902a1.42 1.42 0 11-2.84-.001 1.42 1.42 0 012.84 0zM23.492 19.38a1.42 1.42 0 11-2.84 0 1.42 1.42 0 012.84 0zM6.008 31.322c0-1.92 1.52-3.52 3.442-3.52 1.92 0 3.481 1.6 3.481 3.52 0 1.88-1.56 3.44-3.48 3.44a3.44 3.44 0 01-3.443-3.44zm0-11.902c0-1.92 1.52-3.52 3.442-3.52 1.92 0 3.481 1.6 3.481 3.52 0 1.88-1.56 3.44-3.48 3.44a3.44 3.44 0 01-3.443-3.44zM6.074 6.81c.396-1.879 2.214-3.131 4.094-2.736 1.879.396 3.077 2.283 2.681 4.161-.387 1.84-2.237 3.045-4.116 2.65a3.44 3.44 0 01-2.659-4.075zm12.538 24.513c0-1.92 1.52-3.52 3.442-3.52 1.92 0 3.48 1.6 3.48 3.52 0 1.88-1.56 3.44-3.48 3.44a3.44 3.44 0 01-3.442-3.44z" fillRule="evenodd"/></svg>